HIERARCHY
ROOT hip
{
	OFFSET 0.000000 0.000000 0.000000 
	CHANNELS 6 Xposition Yposition Zposition Xrotation Zrotation Yrotation
	JOINT abdomen
	{
		OFFSET 0.000000 3.402643 0.000000 
		CHANNELS 3 Xrotation Zrotation Yrotation
		JOINT chest
		{
			OFFSET 0.000000 8.438565 -0.680529 
			CHANNELS 3 Xrotation Zrotation Yrotation
			JOINT neck
			{
				OFFSET 0.000000 10.207942 -0.272212 
				CHANNELS 3 Xrotation Zrotation Yrotation
				JOINT head
				{
					OFFSET 0.000000 3.130431 0.000000 
					CHANNELS 3 Xrotation Zrotation Yrotation
					End Site
					{
						OFFSET 0.000000 3.130435 0.000000 
					}
				}
			}
			JOINT lCollar
			{
				OFFSET 3.470700 6.669187 -0.816635 
				CHANNELS 3 Yrotation Zrotation Xrotation
				JOINT lShldr
				{
					OFFSET 3.198488 0.000000 0.000000 
					CHANNELS 3 Zrotation Yrotation Xrotation
					JOINT lForeArm
					{
						OFFSET 10.139888 0.000000 0.000000 
						CHANNELS 3 Yrotation Zrotation Xrotation
						JOINT lHand
						{
							OFFSET 8.370511 0.000000 0.000000 
							CHANNELS 3 Zrotation Yrotation Xrotation
							End Site
							{
								OFFSET 4.083176 0.000000 0.000000 
							}
						}
					}
				}
			}
			JOINT rCollar
			{
				OFFSET -3.470700 6.669187 -0.816635 
				CHANNELS 3 Yrotation Zrotation Xrotation
				JOINT rShldr
				{
					OFFSET -3.198488 0.000000 0.000000 
					CHANNELS 3 Zrotation Yrotation Xrotation
					JOINT rForeArm
					{
						OFFSET -10.139888 0.000000 0.000000 
						CHANNELS 3 Yrotation Zrotation Xrotation
						JOINT rHand
						{
							OFFSET -8.370511 0.000000 0.000000 
							CHANNELS 3 Zrotation Yrotation Xrotation
							End Site
							{
								OFFSET -4.083176 0.000000 0.000000 
							}
						}
					}
				}
			}
		}
	}
	JOINT lThigh
	{
		OFFSET 5.308129 -1.633274 1.361059 
		CHANNELS 3 Xrotation Zrotation Yrotation
		JOINT lShin
		{
			OFFSET -2.041588 -20.007561 0.000000 
			CHANNELS 3 Xrotation Zrotation Yrotation
			JOINT lFoot
			{
				OFFSET 0.000000 -19.190928 -1.224953 
				CHANNELS 3 Xrotation Yrotation Zrotation
				End Site
				{
					OFFSET 0.000000 -2.449906 4.627600 
				}
			}
		}
	}
	JOINT rThigh
	{
		OFFSET -5.308129 -1.633274 1.361059 
		CHANNELS 3 Xrotation Zrotation Yrotation
		JOINT rShin
		{
			OFFSET 2.041588 -20.007561 0.000000 
			CHANNELS 3 Xrotation Zrotation Yrotation
			JOINT rFoot
			{
				OFFSET 0.000000 -19.190928 -1.224953 
				CHANNELS 3 Xrotation Yrotation Zrotation
				End Site
				{
					OFFSET 0.000000 -2.449906 4.627600 
				}
			}
		}
	}
}
MOTION
Frames: 15
Frame Time: 0.016667
-26.063341 70.681168 18.866392 0.550972 6.991868 -128.106079 9.538641 4.285845 -2.200277 2.568818 1.082895 -1.972727 -12.645178 -3.278018 0.873940 21.646374 7.883818 1.248529 2.239031 1.334920 0.039219 63.140869 -47.187355 37.402840 85.256935 -2.461941 3.289337 1.643533 -3.398415 -136.934601 -3.782820 -2.913083 0.048603 -94.850288 49.585106 10.471089 -90.445633 2.476126 3.381778 -1.653298 3.397819 -138.272476 -11.599442 8.465264 0.964822 34.664814 0.002395 0.007140 -40.739044 0.992880 0.867310 -10.443297 10.677358 0.752880 32.387131 0.008247 0.008652 -38.152790 -25.136967 -18.443567 
-26.147106 70.626686 18.662098 0.334625 7.138552 -128.160660 9.557023 4.189299 -2.273587 2.480821 0.965891 -2.008777 -12.645178 -3.278018 0.873940 21.274538 8.035667 1.297611 2.239031 1.334920 0.039219 62.788380 -46.185436 37.743744 85.735741 -2.463602 3.297848 1.643533 -3.398415 -137.588882 -3.782820 -2.913083 0.048603 -95.572792 48.395664 9.447258 -91.002617 2.477147 3.391813 -1.653298 3.397819 -138.096695 -11.638824 8.650959 1.427859 34.742138 0.007886 -0.013908 -41.058609 0.670955 0.589436 -10.433928 10.824854 1.079605 32.376629 0.003004 0.026252 -38.815662 -24.805635 -18.657177 
-26.208551 70.595703 18.522799 0.403632 7.265447 -127.487190 9.547829 4.237571 -2.627549 2.197436 0.712366 -2.199110 -12.645178 -3.278018 0.873940 21.142786 8.366596 1.572850 2.239031 1.334920 0.039219 62.380035 -45.302910 38.086212 86.194992 -2.465128 3.306025 1.643533 -3.398415 -137.852554 -3.782820 -2.913083 0.048603 -96.271332 47.297043 8.466903 -91.794121 2.478430 3.406090 -1.653298 3.397819 -137.862335 -11.792523 8.932174 1.337080 34.879860 0.002350 0.007912 -41.278557 0.239455 0.211156 -10.346585 11.010605 0.720780 32.357121 0.002991 0.025447 -39.297981 -24.721209 -18.913090 
-26.255552 70.603584 18.390192 0.551643 7.538717 -126.909393 9.449794 4.229145 -2.997693 1.816421 0.234257 -2.365578 -12.645178 -3.278018 0.873940 21.062256 8.783671 1.787170 2.239031 1.334920 0.039219 61.675270 -44.561512 38.787991 86.771515 -2.466951 3.316306 1.643533 -3.398415 -138.350601 -3.782820 -2.913083 0.048603 -97.052940 46.330898 7.421541 -92.467873 2.480558 3.398776 -1.653298 3.397819 -137.549820 -12.039447 9.383539 1.316657 35.065636 0.002338 0.009901 -41.455006 -0.077765 -0.056593 -10.317986 11.353366 0.338304 32.210381 0.003095 0.029172 -38.667328 -24.503843 -18.358593 
-26.285751 70.618942 18.265461 0.078812 7.568353 -125.867325 9.340472 4.095551 -3.642994 1.611333 -0.136665 -2.640587 -12.645178 -3.278018 0.873940 20.781782 9.088979 2.002841 2.239031 1.334920 0.039219 60.590252 -43.925091 39.867939 87.240555 -2.468357 3.324684 1.643533 -3.398415 -138.760757 -3.782820 -2.913083 0.048603 -97.826324 45.385765 6.484558 -93.181206 2.481515 3.411674 -1.653298 3.397819 -137.598648 -12.519422 9.072231 1.100773 34.948166 0.002279 0.005051 -41.177723 -0.550350 -0.484480 -10.709351 11.002068 -0.124143 32.367622 0.008236 0.007847 -38.200489 -25.225210 -18.536196 
-26.297436 70.656754 18.135090 -0.147840 7.763647 -125.166275 9.221994 4.010164 -4.104878 1.416087 -0.575996 -2.836602 -12.645178 -3.278018 0.873940 20.729908 9.447882 2.151442 2.239031 1.334920 0.039219 59.454086 -43.369377 41.019688 87.611870 -2.469422 3.331324 1.643533 -3.398415 -139.278336 -3.782820 -2.913083 0.048603 -98.599815 44.735668 5.716116 -93.806587 2.482222 3.422993 -1.653298 3.397819 -137.178741 -12.799795 9.118966 0.987976 34.761650 0.007877 -0.014721 -40.956821 -1.242706 -1.065318 -11.029053 10.990269 -0.439241 32.425789 0.008273 0.019977 -37.711365 -25.469532 -18.391397 
-26.308466 70.735138 18.035702 -0.472534 7.255615 -124.014282 9.189872 3.759850 -4.879847 1.064651 -1.103325 -3.174984 -12.645178 -3.278018 0.873940 20.734076 9.641241 2.326805 2.239031 1.334920 0.039219 58.232903 -42.945862 42.380188 88.012505 -2.470522 3.338496 1.643533 -3.398415 -139.981461 -3.782820 -2.913083 0.048603 -99.143166 44.199287 5.129477 -94.471062 2.482837 3.435026 -1.653298 3.397819 -136.895523 -12.494504 8.492356 0.500309 34.253498 0.007961 -0.013081 -40.534382 -2.340301 -2.000573 -10.786934 10.406199 -0.544644 32.485085 0.008132 0.002929 -38.468479 -25.265476 -18.739782 
-26.227982 70.809052 17.923971 -0.807210 7.235618 -122.737587 9.002943 3.665345 -5.601269 0.693583 -1.454972 -3.484652 -12.645178 -3.278018 0.873940 20.730818 9.941163 2.552915 2.239031 1.334920 0.039219 56.904369 -42.527180 43.860233 88.198166 -2.471015 3.341822 1.643533 -3.398415 -140.723663 -3.782820 -2.913083 0.048603 -99.655067 43.763332 4.652402 -95.047592 2.483258 3.445472 -1.653895 3.407567 -136.280289 -12.717182 8.383741 0.318671 33.618488 0.007971 -0.006280 -40.050453 -3.658095 -3.060558 -11.146754 10.268900 -0.646914 32.659988 0.002976 0.028175 -38.274670 -26.134054 -19.173838 
-26.160366 70.935616 17.819984 -1.721354 6.871927 -121.504532 8.804657 3.397088 -6.358676 0.439636 -1.650342 -3.792235 -12.645178 -3.278018 0.873940 20.788673 10.297741 2.662539 2.239031 1.334920 0.039219 55.577274 -42.566574 45.218750 88.628113 -2.472115 3.349530 1.643533 -3.398415 -141.241241 -3.782820 -2.913083 0.048603 -99.979904 43.575428 4.676113 -95.370064 2.483447 3.451316 -1.653895 3.407567 -136.114273 -12.632398 7.389990 0.230083 32.386391 0.017952 -0.020974 -39.344807 -4.568413 -3.724972 -11.711541 9.320361 -0.778134 33.208286 0.008083 0.003575 -38.664738 -26.532909 -19.661476 
-26.065702 71.057457 17.844933 -2.037745 7.241560 -119.660446 8.519952 3.283751 -7.408432 0.127074 -2.499994 -4.214948 -12.645178 -3.278018 0.873940 20.964731 10.593369 2.805643 2.239031 1.334920 0.039219 54.426876 -42.353855 46.434769 88.667198 -2.472212 3.350232 1.643533 -3.398415 -141.670929 -3.782820 -2.913083 0.048603 -100.195770 43.296585 4.659879 -95.643669 2.483582 3.456276 -1.653895 3.407567 -136.202164 -13.502205 6.921957 -1.145972 31.849333 0.008234 -0.011343 -38.652073 -4.930096 -3.910442 -12.538580 8.973472 -1.807600 33.335136 0.008163 0.008841 -37.653641 -26.102716 -18.751593 
-25.914587 71.163673 17.806990 -2.815908 7.315471 -118.922852 8.293411 3.092384 -7.859611 -0.048880 -2.646483 -4.382511 -12.645178 -3.278018 0.873940 21.523235 10.666267 2.979903 2.239031 1.334920 0.039219 53.335667 -42.313354 47.505150 88.491310 -2.471772 3.347076 1.643533 -3.398415 -142.081070 -3.782820 -2.913083 0.048603 -100.132210 43.075603 5.161128 -95.272346 2.483393 3.449545 -1.653895 3.407567 -136.172867 -13.937871 6.129586 -1.523319 31.164402 0.023145 -0.028144 -38.112816 -5.054929 -3.963863 -13.515243 8.251719 -2.117592 33.882694 0.017803 0.005092 -37.511063 -26.382620 -18.843895 
-25.740229 71.216454 17.816181 -3.043705 7.509045 -118.571098 8.185097 2.996562 -8.123446 -0.068452 -2.978513 -4.478870 -12.645178 -3.278018 0.873940 22.685667 10.643338 3.198163 2.239031 1.334920 0.039219 52.721764 -42.185978 48.305054 87.895248 -2.470205 3.336396 1.643533 -3.398415 -142.442413 -3.782820 -2.913083 0.048603 -100.863190 42.988365 4.671501 -95.106224 2.483294 3.446534 -1.653895 3.407567 -135.752945 -14.321825 5.964942 -1.690732 30.989141 0.008247 -0.015141 -37.702465 -4.178812 -3.220018 -14.294149 8.054147 -2.594950 34.371330 0.013654 0.004777 -36.690094 -26.161152 -18.194138 
-25.509153 71.214355 17.922132 -2.746156 7.179332 -118.126411 8.273178 3.005561 -8.390884 -0.234737 -3.183567 -4.606125 -12.645178 -3.278018 0.873940 24.184822 10.585404 3.286037 2.239031 1.334920 0.039219 52.216949 -42.064358 49.047798 86.859459 -2.467220 3.317876 1.643533 -3.398415 -142.784210 -3.782820 -2.913083 0.048603 -101.556633 43.001785 4.135999 -94.500381 2.482861 3.435557 -1.653895 3.407567 -135.733414 -14.289032 5.846690 -2.045819 31.986315 0.008108 -0.007253 -36.833858 -1.724544 -1.286235 -14.300609 7.954900 -3.316550 34.546974 0.013604 0.012078 -36.192024 -26.216021 -17.907406 
-25.247879 71.179169 18.032551 -2.499451 7.063653 -118.851341 8.370818 2.985489 -8.105403 -0.146718 -3.232411 -4.474163 -12.645178 -3.278018 0.873940 26.004204 10.345949 3.500464 2.239031 1.334920 0.039219 52.035763 -42.066284 49.529583 85.393730 -2.462423 3.291768 1.643533 -3.398415 -142.813507 -3.782820 -2.913083 0.048603 -102.251053 43.123177 3.515985 -93.347321 2.481715 3.414680 -1.653895 3.407567 -135.352554 -14.119774 6.259057 -1.028668 33.628620 0.008134 0.003068 -35.480442 1.101640 0.805330 -14.401650 8.181890 -3.353832 34.547348 0.017702 0.003566 -35.982765 -25.686687 -17.476982 
-24.930941 71.132164 18.212290 -2.232607 6.821039 -119.590752 8.556915 3.022680 -7.787198 0.058677 -3.056639 -4.359114 -12.645178 -3.278018 0.873940 28.018297 10.071100 3.723002 2.239031 1.334920 0.039219 51.806896 -41.887928 50.317169 83.537155 -2.455391 3.258886 1.643533 -3.398415 -142.862320 -3.782820 -2.913083 0.048603 -102.949074 43.362217 2.870046 -91.882065 2.478560 3.407676 -1.653895 3.407567 -135.235367 -13.741477 6.655984 -0.062101 35.524620 0.007917 0.002166 -34.380264 4.353303 3.006518 -14.515383 8.345977 -3.332268 34.507950 0.008044 0.008836 -34.981071 -25.879347 -16.981739 
